<?xml version="1.0" standalone="no"?>
<!DOCTYPE svg PUBLIC "-//W3C//DTD SVG 20010904//EN"
 "http://www.w3.org/TR/2001/REC-SVG-20010904/DTD/svg10.dtd">
<svg version="1.0" xmlns="http://www.w3.org/2000/svg"
 width="200.000000pt" height="200.000000pt" viewBox="0 0 200.000000 200.000000"
 preserveAspectRatio="xMidYMid meet">
<metadata>
Created by potrace 1.14, written by Peter Selinger 2001-2017
</metadata>
<g transform="translate(0.000000,200.000000) scale(0.100000,-0.100000)"
fill="#000000" stroke="none">
<path d="M965 1981 c-6 -5 -113 -69 -240 -142 -126 -73 -309 -178 -405 -234
l-175 -102 -3 -497 -2 -496 22 -9 c13 -5 75 -39 138 -76 63 -37 205 -119 315
-183 110 -63 242 -139 294 -170 l94 -56 36 22 c20 12 213 124 429 249 l392
228 0 495 0 495 -38 21 c-20 11 -210 120 -421 242 -212 122 -394 222 -406 222
-11 0 -25 -4 -30 -9z"/>
</g>
</svg>
