<?xml version="1.0" standalone="no"?>
<!DOCTYPE svg PUBLIC "-//W3C//DTD SVG 20010904//EN"
 "http://www.w3.org/TR/2001/REC-SVG-20010904/DTD/svg10.dtd">
<svg version="1.0" xmlns="http://www.w3.org/2000/svg"
 width="664.000000pt" height="664.000000pt" viewBox="0 0 664.000000 664.000000"
 preserveAspectRatio="xMidYMid meet">
<metadata>
Created by potrace 1.14, written by Peter Selinger 2001-2017
</metadata>
<g transform="translate(0.000000,664.000000) scale(0.100000,-0.100000)"
fill="#000000" stroke="none">
<path d="M1873 5817 l-1423 -822 3 -1675 2 -1674 1425 -823 c784 -453 1434
-823 1444 -823 11 0 139 69 285 154 590 342 1227 710 1251 722 14 8 320 184
680 392 l655 379 2 1674 3 1674 -1422 820 c-932 538 -1432 821 -1452 822 -25
2 -309 -158 -1453 -820z m1957 225 c267 -154 501 -289 520 -299 19 -11 132
-76 250 -145 755 -438 1070 -618 1079 -618 6 0 11 -3 11 -7 0 -5 41 -30 90
-58 50 -27 90 -52 90 -55 0 -5 -18 -16 -100 -62 -270 -154 -979 -565 -992
-576 -13 -11 -130 -334 -143 -395 -1 -7 -5 -19 -8 -27 -4 -8 -22 -58 -39 -111
l-33 -97 -180 105 c-99 58 -199 114 -222 124 l-42 20 -53 -31 c-29 -17 -60
-35 -68 -40 -8 -6 -145 -85 -305 -176 -159 -92 -304 -175 -321 -185 l-31 -19
-279 160 c-153 88 -286 165 -294 170 -103 63 -450 260 -458 260 -6 0 -12 4
-14 8 -4 10 -353 212 -367 212 -5 0 -11 4 -13 8 -1 4 -244 146 -538 316 -294
170 -546 315 -558 323 -25 16 -31 12 411 266 18 10 236 136 485 280 249 144
470 271 490 283 174 96 918 530 920 536 2 4 9 8 15 8 7 0 53 25 102 54 50 30
95 53 100 51 6 -1 229 -129 495 -283z m-2478 -2490 c161 -71 296 -325 237
-447 -20 -41 -54 -57 -112 -51 -106 11 -221 111 -286 246 -30 63 -36 86 -36
142 0 127 71 166 197 110z m4102 14 c69 -29 76 -150 16 -272 -36 -75 -164
-213 -205 -222 -5 -2 -28 -7 -49 -13 -52 -14 -97 -4 -127 27 -21 22 -24 35
-24 98 0 63 5 81 37 148 55 111 147 202 233 230 62 21 77 21 119 4z m-3025
-642 c59 -17 75 -28 152 -104 34 -34 69 -83 90 -125 30 -62 34 -78 34 -152 0
-99 -15 -122 -89 -130 -38 -5 -57 0 -110 26 -202 99 -326 424 -184 486 42 18
44 18 107 -1z m1914 5 c71 -32 70 -182 -1 -313 -100 -185 -339 -273 -382 -140
-64 192 221 527 383 453z m1024 -453 c24 -21 28 -31 28 -82 -1 -99 -79 -234
-255 -440 -249 -290 -643 -517 -895 -516 -106 1 -215 34 -234 71 -50 92 45
292 173 366 59 33 96 38 157 21 217 -61 492 97 714 410 80 112 127 156 191
179 57 21 89 18 121 -9z m-4004 -38 c178 -90 305 -384 205 -474 -34 -31 -122
-27 -183 9 -62 36 -117 88 -155 147 -16 25 -34 51 -40 57 -6 7 -11 16 -11 20
0 5 -7 32 -16 62 -27 95 -1 185 58 202 34 10 97 0 142 -23z m1105 -639 c57
-24 162 -131 196 -197 54 -107 62 -230 17 -275 -11 -11 -39 -21 -65 -24 -38
-5 -57 0 -109 26 -58 29 -126 85 -155 127 -39 58 -84 168 -89 217 -5 45 -1 64
17 101 12 25 25 44 28 42 4 -2 16 0 27 5 26 11 79 2 133 -22z"/>
<path d="M2177 5079 c-62 -15 -131 -55 -170 -100 -30 -34 -37 -50 -37 -83 0
-110 164 -196 350 -182 179 13 300 93 300 198 0 68 -84 141 -190 166 -56 13
-202 14 -253 1z"/>
<path d="M3179 5067 c-129 -44 -187 -116 -170 -209 5 -31 106 -113 147 -121
10 -2 28 -8 39 -13 23 -10 182 -11 238 -1 114 19 215 99 222 174 7 66 -33 115
-130 160 -52 24 -75 28 -170 30 -94 3 -120 0 -176 -20z"/>
<path d="M4249 5080 c-108 -27 -209 -113 -209 -177 0 -62 41 -113 127 -157 68
-34 211 -44 307 -21 90 22 117 36 172 89 40 39 44 48 44 90 0 40 -5 52 -40 90
-62 67 -122 89 -255 92 -60 2 -126 -1 -146 -6z"/>
</g>
</svg>
